<?xml version="1.0" standalone="no"?><!DOCTYPE svg PUBLIC "-//W3C//DTD SVG 1.1//EN" "http://www.w3.org/Graphics/SVG/1.1/DTD/svg11.dtd"><svg height="1024" node-id="1" sillyvg="true" template-height="1024" template-width="1024" version="1.1" viewBox="0 0 1024 1024" width="1024" xmlns="http://www.w3.org/2000/svg" xmlns:xlink="http://www.w3.org/1999/xlink"><defs node-id="142"><clipPath id="SVGID_00000109737833472743536510000006013415215444024248_" node-id="127"><path d="M 828.60 887.60 C 817.80 887.60 809.10 878.90 809.10 868.10 L 809.10 868.10 L 809.10 815.80 C 809.10 812.20 812.00 809.30 815.50 809.30 C 815.50 809.30 815.50 809.30 815.60 809.30 L 918.00 809.30 C 921.60 809.30 924.50 812.20 924.50 815.70 C 924.50 815.70 924.50 815.70 924.50 815.80 L 924.50 868.10 C 924.50 878.90 915.80 887.60 905.10 887.60 C 905.10 887.60 905.10 887.60 905.00 887.60 L 828.60 887.60 Z" fill="#000000" fill-rule="nonzero" node-id="145" stroke="none" target-height="78.29999" target-width="115.39996" target-x="809.1" target-y="809.3"></path></clipPath></defs><g node-id="433"><path d="M 126.80 504.20 C 126.00 499.80 125.20 495.40 124.60 491.10 L 128.80 491.00 C 129.50 495.30 130.20 499.70 131.00 504.00 L 126.80 504.20 Z M 864.10 617.90 L 860.00 616.90 C 861.20 612.70 862.40 608.50 863.50 604.40 L 867.70 605.30 C 866.50 609.50 865.30 613.70 864.10 617.90 Z M 122.70 477.90 C 122.20 473.50 121.70 469.10 121.30 464.80 L 125.50 464.90 C 125.90 469.20 126.30 473.60 126.90 478.00 L 122.70 477.90 Z M 871.00 592.70 L 866.80 591.80 C 867.80 587.60 868.90 583.40 869.80 579.20 L 874.00 580.00 C 873.00 584.30 872.00 588.50 871.00 592.70 Z M 120.40 451.60 C 120.20 447.20 120.00 442.80 119.90 438.50 L 124.10 438.70 C 124.20 443.00 124.40 447.40 124.60 451.70 L 120.40 451.60 Z M 876.70 567.40 L 872.50 566.60 C 873.40 562.40 874.20 558.10 874.90 553.90 L 879.10 554.60 C 878.40 558.80 877.60 563.10 876.70 567.40 Z M 119.80 425.40 C 119.90 421.00 120.00 416.60 120.20 412.30 L 124.40 412.70 C 124.20 416.90 124.00 421.30 124.00 425.70 L 119.80 425.40 Z M 877.00 541.10 C 877.60 536.80 878.20 532.50 878.80 528.30 L 883.00 528.90 C 882.50 533.10 881.90 537.50 881.20 541.80 L 877.00 541.10 Z M 121.20 399.40 C 121.60 395.00 122.10 390.70 122.70 386.50 L 126.90 387.10 C 126.30 391.30 125.80 395.60 125.40 399.90 L 121.20 399.40 Z M 880.20 515.40 C 880.60 511.10 880.90 506.70 881.20 502.50 L 885.40 503.00 C 885.10 507.30 884.80 511.60 884.40 516.00 L 880.20 515.40 Z M 129.20 374.30 L 125.00 373.50 C 125.80 369.20 126.80 364.90 127.80 360.80 L 132.00 361.70 C 130.80 365.80 129.90 370.10 129.20 374.30 L 129.20 374.30 Z M 881.80 489.60 C 881.90 485.20 882.00 480.90 882.00 476.60 L 886.20 476.90 C 886.20 481.20 886.20 485.60 886.00 490.00 L 881.80 489.60 Z M 135.20 349.20 L 131.10 348.20 C 132.40 344.00 133.80 339.80 135.20 335.80 L 139.30 336.90 C 137.90 340.90 136.50 345.10 135.20 349.20 Z M 881.60 463.60 C 881.40 459.20 881.10 454.80 880.80 450.60 L 885.00 450.70 C 885.40 455.00 885.60 459.40 885.80 463.80 L 881.60 463.60 Z M 383.10 382.00 C 377.30 380.40 373.40 377.60 368.10 373.20 L 371.20 371.20 C 375.80 375.10 379.30 377.50 384.10 378.90 L 383.10 382.00 Z M 399.00 376.90 L 395.50 374.80 C 398.40 371.50 400.70 367.80 402.50 363.90 L 406.50 365.30 C 404.60 369.50 402.10 373.40 399.00 376.90 Z M 357.30 362.10 C 354.40 358.70 351.30 354.90 347.90 350.40 L 351.50 349.00 C 354.90 353.50 357.90 357.20 360.70 360.50 L 357.30 362.10 Z M 144.30 324.80 L 140.30 323.50 C 142.10 319.40 144.00 315.40 146.00 311.50 L 150.00 312.90 C 147.90 316.80 146.00 320.80 144.30 324.80 L 144.30 324.80 Z M 879.40 437.50 C 878.80 433.10 878.20 428.70 877.40 424.50 L 881.60 424.40 C 882.40 428.70 883.00 433.10 883.60 437.50 L 879.40 437.50 Z M 411.30 352.90 L 407.20 351.80 C 408.50 348.10 409.70 344.00 411.00 339.40 L 415.10 340.40 C 413.90 345.10 412.60 349.20 411.30 352.90 Z M 339.20 338.50 C 336.30 334.50 333.40 330.20 330.80 326.50 L 334.50 325.20 C 337.00 328.90 340.00 333.10 342.80 337.20 L 339.20 338.50 Z M 647.90 388.40 C 644.60 387.80 641.40 386.60 638.70 384.60 L 641.40 382.30 C 645.50 385.10 650.60 386.10 655.40 385.00 L 656.70 388.20 C 653.80 388.80 650.80 388.90 647.90 388.40 Z M 156.30 301.40 L 152.40 299.80 C 154.80 295.90 157.30 292.10 159.80 288.50 L 163.60 290.30 C 161.10 293.90 158.60 297.70 156.30 301.40 L 156.30 301.40 Z M 671.80 382.10 L 669.00 379.40 C 673.20 376.90 677.20 374.20 681.10 371.30 L 684.20 373.70 C 680.30 376.80 676.20 379.60 671.80 382.10 L 671.80 382.10 Z M 628.30 372.80 C 625.90 368.70 623.70 364.40 621.90 360.00 L 625.90 359.30 C 627.70 363.60 629.70 367.70 632.10 371.70 L 628.30 372.80 Z M 874.80 411.50 C 873.80 407.10 872.60 402.70 871.40 398.60 L 875.50 398.10 C 876.80 402.30 877.90 406.70 879.00 411.20 L 874.80 411.50 Z M 322.50 314.50 C 319.30 309.90 316.60 306.10 314.10 302.60 L 317.80 301.20 C 320.40 304.70 323.10 308.50 326.30 313.20 L 322.50 314.50 Z M 418.50 327.60 L 414.30 326.70 C 415.20 323.00 416.20 318.90 417.40 314.10 L 421.60 315.00 C 420.50 319.90 419.50 324.00 418.50 327.60 L 418.50 327.60 Z M 171.90 279.60 L 168.30 277.70 C 171.30 274.10 174.40 270.60 177.60 267.30 L 181.10 269.40 C 177.90 272.60 174.80 276.00 171.90 279.60 Z M 695.70 364.70 L 692.50 362.40 C 696.10 359.50 699.70 356.30 703.50 353.20 L 706.80 355.50 C 702.90 358.60 699.20 361.80 695.70 364.70 L 695.70 364.70 Z M 617.10 347.10 C 615.80 343.20 614.40 338.90 613.00 334.10 L 617.20 333.70 C 618.60 338.50 619.90 342.70 621.20 346.60 L 617.10 347.10 Z M 867.10 385.70 C 865.50 381.30 863.70 377.10 861.80 373.00 L 865.80 372.20 C 867.70 376.30 869.50 380.60 871.10 385.10 L 867.10 385.70 Z M 305.30 290.80 C 302.10 286.60 299.00 282.80 296.00 279.30 L 299.50 277.70 C 302.50 281.30 305.60 285.10 308.90 289.30 L 305.30 290.80 Z M 424.60 302.40 L 420.40 301.50 C 421.40 297.30 422.40 293.10 423.40 288.80 L 427.60 289.70 C 426.60 294.00 425.60 298.20 424.60 302.40 L 424.60 302.40 Z M 717.60 346.20 L 714.40 343.90 C 718.60 340.40 722.30 337.50 725.80 334.80 L 728.90 337.20 C 725.50 339.90 721.80 342.80 717.60 346.20 L 717.60 346.20 Z M 191.20 259.70 L 187.90 257.40 C 191.60 254.20 195.60 251.20 199.80 248.50 L 202.70 251.10 C 198.70 253.70 194.80 256.60 191.20 259.70 Z M 609.30 321.10 C 608.10 316.50 606.90 311.90 605.80 308.10 L 610.00 307.70 C 611.00 311.60 612.20 316.20 613.50 320.70 L 609.30 321.10 Z M 285.90 268.20 C 282.30 264.60 278.60 261.10 274.70 257.80 L 277.70 255.70 C 281.70 259.00 285.60 262.60 289.30 266.40 L 285.90 268.20 Z M 855.40 360.70 C 853.00 356.60 850.50 352.60 847.70 348.70 L 851.40 347.30 C 854.30 351.20 856.90 355.30 859.30 359.60 L 855.40 360.70 Z M 215.90 244.40 L 213.80 241.50 C 219.10 239.50 224.70 238.20 230.40 237.80 L 231.10 241.00 C 225.90 241.40 220.80 242.50 215.90 244.40 Z M 740.80 328.70 L 737.80 326.20 C 742.00 323.40 746.30 320.80 750.80 318.40 L 753.40 321.10 C 749.00 323.40 744.80 326.00 740.80 328.70 Z M 430.60 277.00 L 426.40 276.10 C 427.50 271.50 428.60 267.40 429.60 263.50 L 433.80 264.40 C 432.80 268.40 431.70 272.50 430.60 277.00 Z M 261.90 248.90 C 257.30 246.20 252.30 244.10 247.10 242.70 L 248.20 239.60 C 253.80 241.20 259.20 243.40 264.20 246.40 L 261.90 248.90 Z M 838.40 337.40 C 835.00 333.70 831.20 330.30 827.20 327.10 L 830.10 324.90 C 834.20 328.20 838.10 331.70 841.70 335.60 L 838.40 337.40 Z M 602.50 295.00 C 601.20 289.90 600.10 285.80 599.00 282.00 L 603.20 281.60 C 604.20 285.40 605.30 289.60 606.70 294.60 L 602.50 295.00 Z M 767.40 315.10 L 765.40 312.10 C 770.80 310.30 776.30 309.10 781.90 308.60 L 782.70 311.80 C 777.50 312.30 772.30 313.40 767.40 315.10 L 767.40 315.10 Z M 814.00 318.60 C 809.20 316.10 804.10 314.20 798.80 313.00 L 799.70 309.90 C 805.40 311.30 810.90 313.30 816.10 316.00 L 814.00 318.60 Z M 437.20 251.90 L 433.10 250.90 C 434.30 246.50 435.60 242.30 436.90 238.40 L 441.00 239.40 C 439.70 243.30 438.50 247.50 437.20 251.90 Z M 595.40 268.90 C 594.10 264.30 592.80 260.00 591.50 256.00 L 595.60 255.50 C 596.90 259.60 598.20 263.90 599.50 268.50 L 595.40 268.90 Z M 445.20 227.10 L 441.10 226.00 C 442.70 221.70 444.30 217.60 446.00 213.70 L 450.00 215.00 C 448.40 218.70 446.70 222.80 445.20 227.10 L 445.20 227.10 Z M 587.10 243.10 C 585.50 238.60 583.90 234.30 582.20 230.30 L 586.20 229.60 C 587.90 233.70 589.50 238.00 591.10 242.50 L 587.10 243.10 Z M 455.60 203.10 L 451.60 201.70 C 453.70 197.70 456.00 193.80 458.50 190.10 L 462.30 191.80 C 459.80 195.40 457.60 199.20 455.60 203.10 Z M 576.60 217.70 C 574.50 213.30 572.20 209.10 570.00 205.30 L 573.80 204.20 C 576.10 208.10 578.40 212.30 580.60 216.80 L 576.60 217.70 Z M 470.50 181.10 L 467.00 179.00 C 470.30 175.40 473.90 172.20 477.90 169.40 L 480.90 171.90 C 477.10 174.50 473.60 177.60 470.50 181.10 Z M 562.00 193.40 C 559.00 189.50 555.70 185.80 552.20 182.40 L 555.40 180.50 C 559.10 184.00 562.50 187.90 565.60 191.90 L 562.00 193.40 Z M 494.00 165.60 L 492.20 162.60 C 497.80 161.00 503.50 160.30 509.30 160.60 L 509.40 163.80 C 504.20 163.50 499.00 164.10 494.00 165.60 Z M 540.00 173.10 C 535.40 170.30 530.60 168.10 525.50 166.60 L 526.70 163.60 C 532.20 165.30 537.50 167.70 542.50 170.70 L 540.00 173.10 Z" fill="#c5d7f9" fill-rule="nonzero" group-id="1" node-id="150" stroke="none" target-height="457.60004" target-width="766.4" target-x="119.8" target-y="160.3"></path></g><path d="M 778.20 885.40 C 778.20 885.40 862.20 737.50 798.60 701.30 C 751.10 674.30 712.40 720.30 712.40 720.30 C 712.40 720.30 777.50 540.10 704.30 510.80 C 631.10 481.50 625.20 591.40 625.20 591.40 C 625.20 591.40 633.50 366.80 486.00 385.90 C 375.30 400.20 398.00 524.60 398.00 524.60 C 398.00 524.60 306.70 490.70 248.70 561.10 C 180.50 643.90 274.90 739.10 274.90 739.10 C 274.90 739.10 185.30 681.40 132.20 720.20 C 72.40 764.00 82.30 824.00 129.30 893.70 L 778.20 885.40 Z" fill="#f0f8ff" fill-rule="nonzero" node-id="153" stroke="none" target-height="526.9" target-width="789.7999" target-x="72.4" target-y="366.8"></path><path d="M 864.00 897.20 C 864.00 909.40 689.40 919.20 474.00 919.20 C 258.60 919.20 84.00 909.40 84.00 897.20 C 84.00 885.00 258.60 875.20 474.00 875.20 C 689.40 875.20 864.00 885.10 864.00 897.20 Z" fill="#d6e6f2" fill-rule="nonzero" node-id="155" stroke="none" target-height="44" target-width="780" target-x="84" target-y="875.2"></path><path d="M 674.30 880.10 C 674.30 887.50 668.30 893.40 661.00 893.40 L 244.60 893.40 C 237.20 893.40 231.30 887.40 231.30 880.10 L 231.30 880.10 L 231.30 527.00 C 231.30 519.60 237.20 513.70 244.60 513.70 L 244.60 513.70 L 661.00 513.70 C 668.40 513.70 674.30 519.70 674.30 527.00 L 674.30 880.10 Z" fill="#b3d0ff" fill-rule="nonzero" node-id="157" stroke="none" target-height="379.7" target-width="443" target-x="231.29999" target-y="513.7"></path><path d="M 661.00 513.70 L 244.60 513.70 C 237.30 513.70 231.30 519.70 231.30 527.00 L 231.30 583.70 L 674.30 583.70 L 674.30 527.00 C 674.30 519.70 668.30 513.70 661.00 513.70 Z" fill="#4c6ef4" fill-rule="nonzero" node-id="159" stroke="none" target-height="70" target-width="443" target-x="231.29999" target-y="513.7"></path><path d="M 294.60 550.40 C 294.60 557.80 288.60 563.70 281.30 563.70 L 279.60 563.70 C 272.20 563.70 266.30 557.70 266.30 550.40 L 266.30 500.40 C 266.30 493.00 272.30 487.10 279.60 487.10 L 281.30 487.10 C 288.70 487.10 294.60 493.10 294.60 500.40 L 294.60 550.40 Z" fill="#94b8ed" fill-rule="nonzero" node-id="161" stroke="none" target-height="76.600006" target-width="28.300018" target-x="266.3" target-y="487.1"></path><path d="M 634.30 550.40 C 634.30 557.80 628.30 563.70 621.00 563.70 L 619.30 563.70 C 611.90 563.70 606.00 557.70 606.00 550.40 L 606.00 550.40 L 606.00 500.40 C 606.00 493.00 612.00 487.10 619.30 487.10 L 621.00 487.10 C 628.40 487.10 634.30 493.10 634.30 500.40 L 634.30 550.40 Z" fill="#94b8ed" fill-rule="nonzero" node-id="163" stroke="none" target-height="76.600006" target-width="28.299988" target-x="606" target-y="487.1"></path><path d="M 321.80 804.80 L 321.80 780.90 L 343.60 761.20 C 380.50 728.30 398.40 709.30 398.90 689.60 C 398.90 675.80 390.60 665.00 371.10 665.00 C 356.60 665.00 343.90 672.30 335.00 679.00 L 323.90 650.70 C 336.60 641.10 356.30 633.30 379.10 633.30 C 417.30 633.30 438.30 655.60 438.30 686.20 C 438.30 714.50 417.80 737.10 393.40 758.90 L 377.80 771.90 L 377.80 772.40 L 441.40 772.40 L 441.40 804.90 L 321.80 804.80 Z" fill="#ffffff" fill-rule="nonzero" node-id="165" stroke="none" target-height="171.60004" target-width="119.600006" target-x="321.8" target-y="633.3"></path><path d="M 472.80 766.10 C 479.80 769.70 495.90 776.50 512.00 776.50 C 532.50 776.50 542.90 766.70 542.90 753.90 C 542.90 737.30 526.30 729.80 508.90 729.80 L 492.80 729.80 L 492.80 701.50 L 508.10 701.50 C 521.30 701.30 538.20 696.30 538.20 682.00 C 538.20 671.90 529.90 664.30 513.30 664.30 C 499.50 664.30 485.00 670.30 478.00 674.40 L 470.00 645.90 C 480.10 639.40 500.40 633.20 522.20 633.20 C 558.30 633.20 578.20 652.20 578.20 675.20 C 578.20 693.10 568.10 707.10 547.30 714.40 L 547.30 714.90 C 567.50 718.50 583.90 733.80 583.90 755.90 C 583.90 785.70 557.70 807.50 514.90 807.50 C 493.10 807.50 474.70 801.80 464.80 795.60 L 472.80 766.10 Z" fill="#ffffff" fill-rule="nonzero" node-id="167" stroke="none" target-height="174.29999" target-width="119.10004" target-x="464.8" target-y="633.2"></path><path d="M 716.30 656.90 C 716.30 689.54 689.84 716.00 657.20 716.00 C 624.56 716.00 598.10 689.54 598.10 656.90 C 598.10 624.26 624.56 597.80 657.20 597.80 C 689.84 597.80 716.30 624.26 716.30 656.90 Z" fill="#439e7b" fill-rule="nonzero" node-id="169" stroke="none" target-height="118.19995" target-width="118.19995" target-x="598.10004" target-y="597.80005"></path><path d="M 632.70 653.90 L 651.10 684.00 L 695.50 616.70 L 653.40 661.50 Z" fill="#ffffff" fill-rule="nonzero" node-id="171" stroke="none" target-height="67.29999" target-width="62.799988" target-x="632.7" target-y="616.7"></path><path d="M 494.00 458.20 L 284.50 458.20 C 283.90 458.20 283.40 457.70 283.40 457.10 L 283.40 374.40 C 283.40 373.80 283.90 373.30 284.50 373.30 L 494.00 373.30 C 494.60 373.30 495.10 373.80 495.10 374.40 L 495.10 457.10 C 495.10 457.70 494.60 458.20 494.00 458.20 Z" fill="#feb801" fill-rule="nonzero" node-id="173" stroke="none" target-height="84.900024" target-width="211.69998" target-x="283.4" target-y="373.3"></path><path d="M 426.00 454.20 L 426.00 480.90 L 385.50 454.20 Z" fill="#feb801" fill-rule="nonzero" node-id="175" stroke="none" target-height="26.700043" target-width="40.5" target-x="385.5" target-y="454.19998"></path><path d="M 297.60 391.00 L 481.00 391.00 L 481.00 395.50 L 297.60 395.50 Z" fill="#f0f8ff" fill-rule="nonzero" node-id="177" stroke="none" target-height="4.5" target-width="183.4" target-x="297.6" target-y="391"></path><path d="M 297.60 409.80 L 481.00 409.80 L 481.00 414.30 L 297.60 414.30 Z" fill="#f0f8ff" fill-rule="nonzero" node-id="179" stroke="none" target-height="4.4999695" target-width="183.4" target-x="297.6" target-y="409.80002"></path><path d="M 297.60 430.60 L 481.00 430.60 L 481.00 435.10 L 297.60 435.10 Z" fill="#f0f8ff" fill-rule="nonzero" node-id="181" stroke="none" target-height="4.5000305" target-width="183.4" target-x="297.6" target-y="430.59998"></path><g node-id="434"><path d="M 228.40 761.00 C 228.30 761.00 226.80 785.20 198.70 783.10 C 179.20 781.60 172.30 761.00 171.80 761.00 C 173.90 760.50 176.50 759.90 177.50 759.60 C 182.10 758.50 185.60 754.70 186.20 750.10 C 186.80 746.70 185.80 729.10 186.10 725.60 L 216.00 732.20 C 215.60 739.50 212.70 756.50 222.90 759.60 C 224.60 760.10 226.50 760.60 228.40 761.00 L 228.40 761.00 Z" fill="#ff9e85" fill-rule="nonzero" group-id="2" node-id="184" stroke="none" target-height="59.599976" target-width="56.599976" target-x="171.8" target-y="725.60004"></path></g><g node-id="435"><path d="M 216.40 752.60 C 215.90 751.10 215.60 749.50 215.50 748.00 C 215.20 744.40 215.20 740.80 215.70 737.20 C 209.60 736.40 203.90 733.90 199.20 730.00 C 198.60 732.00 195.60 741.00 196.40 743.00 C 198.00 746.60 205.60 752.60 216.40 752.60 L 216.40 752.60 Z" fill="#0c0c0c" fill-opacity="0.22" fill-rule="nonzero" group-id="3" node-id="188" stroke="none" target-height="22.599915" target-width="20.799973" target-x="195.60002" target-y="730"></path></g><path d="M 228.40 700.70 C 228.40 700.70 235.70 692.90 235.20 677.90 C 234.80 666.30 225.70 675.50 225.70 675.50 C 225.70 675.50 225.30 667.20 219.60 669.00 C 213.90 670.80 212.00 680.00 212.00 680.00" fill="#0c0c0c" fill-rule="nonzero" node-id="191" stroke="none" target-height="34.400024" target-width="23.699997" target-x="212" target-y="666.3"></path><path d="M 189.00 675.40 C 189.00 675.40 160.10 683.80 177.80 721.80 L 180.40 721.50 L 185.80 720.90" fill="#0c0c0c" fill-rule="nonzero" node-id="193" stroke="none" target-height="46.399963" target-width="28.899994" target-x="160.1" target-y="675.4"></path><path d="M 212.90 745.30 C 201.10 746.30 185.90 741.50 182.90 725.70 L 180.20 711.50 C 177.20 695.80 183.00 681.40 197.80 678.60 L 197.80 678.60 C 212.60 675.80 226.10 686.40 229.10 702.10 L 230.30 708.40 C 230.70 710.60 230.90 712.80 231.00 715.00 C 231.20 720.80 231.60 729.60 228.80 736.10 C 226.10 742.30 220.40 744.60 212.90 745.30 L 212.90 745.30 Z" fill="#ff9e85" fill-rule="nonzero" node-id="195" stroke="none" target-height="70.5" target-width="54.399994" target-x="177.20001" target-y="675.8"></path><path d="M 218.10 728.50 C 218.30 728.50 218.40 728.60 218.40 728.80 L 218.40 728.90 C 217.80 731.70 215.00 733.40 212.20 732.90 C 209.30 732.60 207.20 730.20 207.30 727.30 C 207.30 727.10 207.50 727.00 207.70 727.00 L 207.80 727.00 C 209.50 727.60 211.20 728.00 213.00 728.20 C 214.70 728.50 216.40 728.60 218.10 728.50 L 218.10 728.50 Z" fill="#ffffff" fill-rule="nonzero" node-id="197" stroke="none" target-height="6.4000244" target-width="11.199997" target-x="207.2" target-y="727"></path><g node-id="436"><g node-id="476"><path d="M 226.30 709.83 C 226.33 710.71 225.64 711.45 224.76 711.49 C 223.88 711.52 223.13 710.84 223.10 709.95 C 223.06 709.07 223.75 708.33 224.63 708.29 C 225.52 708.26 226.26 708.94 226.30 709.83 Z" fill="#0a0a0a" fill-rule="nonzero" group-id="4,44" node-id="202" stroke="none" target-height="3.267395" target-width="3.2674255" target-x="223.06328" target-y="708.25543"></path></g></g><g node-id="437"><path d="M 214.30 724.20 C 213.90 724.20 213.60 723.90 213.60 723.50 C 213.60 723.20 213.80 722.90 214.10 722.80 L 217.60 722.30 L 215.20 715.40 C 215.10 715.10 215.20 714.70 215.50 714.50 C 215.80 714.40 216.20 714.50 216.40 714.80 L 216.40 714.90 L 219.10 722.50 C 219.20 722.70 219.10 722.90 219.00 723.10 C 218.90 723.30 218.70 723.40 218.50 723.40 L 214.30 724.20 L 214.30 724.20 Z" fill="#0a0a0a" fill-rule="nonzero" group-id="5" node-id="207" stroke="none" target-height="9.800049" target-width="5.599991" target-x="213.6" target-y="714.39996"></path></g><g node-id="438"><path d="M 207.80 703.90 C 208.00 704.40 206.20 705.20 203.70 706.00 C 201.20 706.80 199.00 707.30 198.80 706.70 C 198.60 705.90 200.40 704.00 202.80 703.20 C 205.20 702.40 207.50 703.10 207.80 703.90 L 207.80 703.90 Z" fill="#0a0a0a" fill-rule="nonzero" group-id="6" node-id="211" stroke="none" target-height="4.8999634" target-width="9.399994" target-x="198.6" target-y="702.4"></path></g><g node-id="439"><g node-id="477"><path d="M 208.60 711.63 C 208.63 712.51 207.94 713.25 207.06 713.29 C 206.18 713.32 205.43 712.64 205.40 711.75 C 205.36 710.87 206.05 710.13 206.93 710.09 C 207.82 710.06 208.56 710.74 208.60 711.63 Z" fill="#0a0a0a" fill-rule="nonzero" group-id="7,45" node-id="217" stroke="none" target-height="3.267395" target-width="3.2674103" target-x="205.3636" target-y="710.05536"></path></g></g><g node-id="440"><path d="M 227.80 703.40 C 227.80 703.90 225.80 703.90 223.30 703.60 C 220.80 703.30 218.40 702.90 218.50 702.30 C 218.60 701.50 220.70 700.40 223.30 700.70 C 225.90 701.00 227.90 702.60 227.80 703.40 L 227.80 703.40 Z" fill="#0a0a0a" fill-rule="nonzero" group-id="8" node-id="222" stroke="none" target-height="3.500061" target-width="9.499985" target-x="218.4" target-y="700.4"></path></g><path d="M 184.70 730.30 C 180.20 731.20 175.60 727.00 174.80 722.50 C 174.00 718.00 177.10 714.80 181.60 714.00 L 184.50 716.60 L 188.60 729.60 L 184.70 730.30 L 184.70 730.30 Z" fill="#ff9e85" fill-rule="nonzero" node-id="225" stroke="none" target-height="17.199951" target-width="14.600006" target-x="174" target-y="714"></path><path d="M 186.50 722.40 C 187.30 722.30 187.80 721.70 187.80 720.90 C 187.40 715.90 186.50 699.30 192.00 697.10 C 196.30 695.40 208.40 699.80 218.20 696.10 C 222.50 694.50 226.90 694.80 227.70 696.80 C 228.00 697.60 228.70 685.20 220.10 677.40 C 213.30 671.20 194.90 672.40 187.10 676.20 C 165.50 686.80 180.90 715.10 180.90 715.10 L 182.90 721.50 C 183.10 722.10 183.70 722.60 184.30 722.50 L 186.50 722.40 L 186.50 722.40 Z" fill="#0c0c0c" fill-rule="nonzero" node-id="227" stroke="none" target-height="51.399902" target-width="63.199997" target-x="165.5" target-y="671.2"></path><g node-id="441"><path d="M 216.15 675.68 C 217.06 677.95 217.32 680.36 216.87 682.41 C 216.41 684.45 215.29 685.94 213.74 686.57 C 212.19 687.19 210.34 686.89 208.60 685.73 C 206.86 684.57 205.37 682.64 204.46 680.38 C 203.55 678.11 203.30 675.69 203.75 673.65 C 204.20 671.61 205.33 670.11 206.88 669.49 C 208.43 668.87 210.28 669.17 212.02 670.33 C 213.76 671.49 215.24 673.42 216.15 675.68 Z" fill="#0c0c0c" fill-rule="nonzero" group-id="9" node-id="231" stroke="none" target-height="18.32074" target-width="14.023926" target-x="203.29512" target-y="668.86896"></path></g><g node-id="442"><path d="M 197.90 777.20 C 178.30 776.30 177.40 759.60 177.40 759.60 C 177.40 759.60 167.70 760.20 161.20 761.10 C 150.60 762.50 143.60 766.10 138.10 771.70 C 132.90 776.90 129.80 782.50 133.10 818.20 C 135.50 844.10 133.80 900.90 133.80 900.90 L 252.30 900.90 C 252.30 900.90 259.40 826.40 260.40 814.70 C 262.30 792.50 263.80 773.10 259.20 768.50 C 249.70 759.00 231.10 759.60 222.90 759.60 C 222.90 759.60 224.70 778.50 197.90 777.20 Z" fill="#367cff" fill-rule="nonzero" group-id="10" node-id="235" stroke="none" target-height="141.90002" target-width="133.99998" target-x="129.8" target-y="759"></path></g><g node-id="443"><path d="M 405.60 894.20 C 405.80 892.70 405.00 891.30 403.80 890.70 C 403.80 890.60 403.90 890.60 403.90 890.50 C 403.90 890.40 403.80 890.30 403.70 890.20 L 406.60 890.20 C 408.40 890.20 410.00 888.90 410.20 887.20 C 410.40 885.40 409.20 883.80 407.60 883.40 L 407.60 883.30 L 408.80 883.30 C 410.50 883.30 412.00 882.20 412.30 880.50 C 412.70 878.30 411.00 876.40 408.90 876.40 L 406.10 876.40 L 406.10 876.40 C 406.10 876.40 406.10 876.40 406.10 876.30 C 407.60 875.90 408.80 874.60 408.80 872.90 C 408.90 870.90 406.70 869.80 404.90 869.80 L 388.80 869.60 L 393.00 867.70 C 394.70 866.90 395.70 865.00 395.00 863.30 C 394.30 861.40 392.20 860.60 390.40 861.40 L 367.20 871.70 C 361.60 874.20 358.90 880.70 361.30 886.50 L 361.30 886.50 C 364.00 893.00 370.30 897.30 377.40 897.20 L 402.00 897.10 C 403.70 897.10 405.30 895.80 405.60 894.20 L 405.60 894.20 Z" fill="#ff9e85" fill-rule="nonzero" group-id="11" node-id="240" stroke="none" target-height="36.700012" target-width="53.80002" target-x="358.9" target-y="860.6"></path><g node-id="478"><path d="M 390.20 876.30 C 390.20 876.50 390.30 876.60 390.50 876.60 L 405.80 876.80 C 406.00 876.80 406.10 876.70 406.10 876.50 C 406.10 876.30 406.00 876.20 405.80 876.20 L 390.50 876.00 C 390.30 875.90 390.20 876.10 390.20 876.30 L 390.20 876.30 L 390.20 876.30 Z" fill="#0c0c0c" fill-opacity="0.25" fill-rule="nonzero" group-id="11,46" node-id="244" stroke="none" target-height="0.8999634" target-width="15.900024" target-x="390.19998" target-y="875.9"></path></g><g node-id="479"><path d="M 389.90 883.00 C 389.90 883.20 390.00 883.30 390.20 883.30 L 407.30 883.50 C 407.50 883.50 407.60 883.40 407.60 883.20 C 407.60 883.00 407.50 882.90 407.30 882.90 L 390.20 882.70 C 390.10 882.70 389.90 882.80 389.90 883.00 L 389.90 883.00 L 389.90 883.00 Z" fill="#0c0c0c" fill-opacity="0.25" fill-rule="nonzero" group-id="11,47" node-id="249" stroke="none" target-height="0.7999878" target-width="17.700012" target-x="389.9" target-y="882.7"></path></g><path d="M 389.60 890.30 C 389.60 890.50 389.70 890.60 389.90 890.60 L 403.50 890.80 C 403.70 890.80 403.80 890.70 403.80 890.50 C 403.80 890.30 403.70 890.20 403.50 890.20 L 389.90 890.00 C 389.70 890.00 389.60 890.10 389.60 890.30 L 389.60 890.30 L 389.60 890.30 Z" fill="#0c0c0c" fill-opacity="0.25" fill-rule="nonzero" group-id="11,48" node-id="254" stroke="none" target-height="0.7999878" target-width="14.199982" target-x="389.6" target-y="890"></path></g><g node-id="444"><path d="M 370.80 900.10 L 285.20 900.50 C 276.80 899.90 269.60 894.50 266.60 886.60 L 224.40 793.00 C 220.20 781.80 225.80 769.40 237.00 765.20 L 237.00 765.20 C 248.10 761.00 259.20 763.80 263.40 775.00 L 302.20 858.50 L 372.60 859.70 C 372.60 859.60 371.40 900.20 370.80 900.10 L 370.80 900.10 Z" fill="#367cff" fill-rule="nonzero" group-id="12" node-id="259" stroke="none" target-height="139.5" target-width="152.40001" target-x="220.2" target-y="761"></path></g><path d="M 258.80 819.90 C 258.80 819.70 258.90 819.60 259.10 819.60 C 259.30 819.60 259.40 819.70 259.40 819.90 L 257.00 858.40 C 257.00 858.50 256.90 858.70 256.70 858.70 L 256.70 858.70 C 256.50 858.70 256.40 858.50 256.40 858.40" fill="#0c0c0c" fill-rule="nonzero" node-id="262" stroke="none" target-height="39.099976" target-width="3" target-x="256.4" target-y="819.60004"></path><g node-id="445"><path d="M 273.40 861.20 L 256.00 855.10 L 258.50 854.90 C 260.20 854.80 261.40 853.30 261.40 851.70 C 261.30 850.00 259.90 848.70 258.20 848.80 C 258.10 848.80 258.10 848.80 258.00 848.80 L 227.30 852.10 L 228.10 862.00 C 228.60 868.30 232.90 873.60 238.90 875.50 L 252.20 879.60 C 253.60 880.10 255.20 879.50 255.90 878.20 C 256.50 877.00 256.40 875.60 255.40 874.60 L 255.50 874.50 C 255.50 874.40 255.50 874.30 255.50 874.20 L 258.00 875.00 C 259.60 875.60 261.40 874.80 262.00 873.20 C 262.50 871.80 262.00 870.20 260.70 869.50 L 260.80 869.40 L 261.80 869.70 C 263.20 870.20 264.80 869.60 265.50 868.30 C 266.30 866.90 265.80 865.00 264.40 864.20 C 264.40 864.20 264.40 864.20 264.40 864.10 L 271.60 866.60 C 273.10 867.10 274.80 866.30 275.30 864.80 C 275.70 863.40 274.90 861.70 273.40 861.20 L 273.40 861.20 Z" fill="#ff9e85" fill-rule="nonzero" group-id="13" node-id="265" stroke="none" target-height="31.399902" target-width="48.40001" target-x="227.3" target-y="848.7001"></path><g node-id="481"><path d="M 263.90 864.40 L 263.90 864.40 L 256.80 861.90 C 256.70 861.80 256.60 861.70 256.60 861.50 C 256.60 861.40 256.80 861.30 257.00 861.30 L 257.00 861.30 L 264.00 863.80 C 264.10 863.80 264.20 864.00 264.20 864.20 L 264.20 864.20 C 264.20 864.30 264.10 864.40 263.90 864.40 L 263.90 864.40 Z" fill="#0a0a0a" fill-opacity="0.2" fill-rule="nonzero" group-id="13,49" node-id="268" stroke="none" target-height="3.1000366" target-width="7.600006" target-x="256.6" target-y="861.3"></path></g><g node-id="482"><path d="M 260.40 869.50 L 260.30 869.50 L 254.80 867.50 C 254.70 867.40 254.60 867.30 254.60 867.10 C 254.70 867.00 254.80 866.90 255.00 867.00 L 260.50 869.00 C 260.60 869.10 260.70 869.20 260.70 869.40 C 260.60 869.40 260.50 869.50 260.40 869.50 Z" fill="#0a0a0a" fill-opacity="0.2" fill-rule="nonzero" group-id="13,50" node-id="272" stroke="none" target-height="2.5999756" target-width="6.100006" target-x="254.6" target-y="866.9"></path></g><path d="M 255.20 874.60 L 255.10 874.60 L 252.50 873.60 C 252.40 873.50 252.30 873.40 252.30 873.20 C 252.40 873.10 252.50 873.00 252.70 873.00 L 252.70 873.00 L 255.30 874.00 C 255.40 874.10 255.50 874.20 255.50 874.40 C 255.40 874.60 255.30 874.70 255.20 874.60 L 255.20 874.60 Z" fill="#0a0a0a" fill-opacity="0.2" fill-rule="nonzero" group-id="13,51" node-id="276" stroke="none" target-height="1.6999512" target-width="3.199997" target-x="252.3" target-y="873"></path></g><g node-id="446"><path d="M 240.20 882.70 L 132.60 900.50 C 131.80 900.60 131.00 900.60 130.30 900.60 C 118.40 900.60 108.70 890.90 108.70 879.00 C 108.70 877.80 108.80 876.60 109.00 875.40 L 131.90 783.50 C 133.90 771.70 145.00 763.80 156.80 765.80 C 168.60 767.80 176.50 778.90 174.50 790.70 L 156.90 854.80 L 235.10 844.10 L 240.20 882.70 L 240.20 882.70 Z" fill="#367cff" fill-rule="nonzero" group-id="14" node-id="281" stroke="none" target-height="136.79999" target-width="131.49998" target-x="108.7" target-y="763.8"></path></g><g node-id="447"><path d="M 142.90 856.80 C 142.70 856.80 142.60 856.60 142.70 856.50 C 142.70 856.40 142.80 856.30 142.90 856.30 L 156.30 854.30 C 156.40 854.30 156.60 854.40 156.60 854.50 L 156.60 854.50 C 156.60 854.70 156.50 854.80 156.40 854.80 L 156.40 854.80 L 142.90 856.80 L 142.90 856.80 Z" fill="#0c0c0c" fill-rule="nonzero" group-id="15" node-id="285" stroke="none" target-height="2.5" target-width="14" target-x="142.6" target-y="854.3"></path></g><g node-id="448"><path d="M 135.60 900.90 C 135.50 900.90 135.30 900.80 135.30 900.70 C 135.30 900.50 135.40 900.40 135.50 900.40 L 135.50 900.40 L 239.50 882.50 L 234.40 844.50 L 156.80 854.80 C 156.70 854.80 156.60 854.80 156.60 854.70 C 156.50 854.60 156.50 854.50 156.50 854.50 L 164.90 818.30 C 164.90 818.10 165.10 818.00 165.20 818.10 L 165.20 818.10 C 165.40 818.10 165.50 818.30 165.40 818.40 L 157.10 854.30 L 234.70 844.00 C 234.80 844.00 234.90 844.00 234.90 844.10 C 235.00 844.10 235.00 844.20 235.00 844.30 L 240.10 882.90 C 240.10 883.10 240.00 883.20 239.90 883.20 L 239.90 883.20 L 135.60 900.90 L 135.60 900.90 Z" fill="#0c0c0c" fill-rule="nonzero" group-id="16" node-id="289" stroke="none" target-height="82.900024" target-width="104.8" target-x="135.3" target-y="818"></path></g><path d="M 101.70 511.70 L 122.70 447.30 C 123.50 445.00 125.60 443.40 128.10 443.40 L 213.50 443.40 C 216.60 443.40 219.10 445.90 219.10 449.00 C 219.10 449.60 219.00 450.20 218.80 450.70 L 197.90 515.10 C 197.10 517.40 195.00 519.00 192.50 519.00 L 107.00 519.00 C 103.90 519.00 101.40 516.50 101.40 513.40 C 101.40 512.90 101.40 512.30 101.70 511.70 L 101.70 511.70 Z" fill="#203c79" fill-rule="nonzero" node-id="292" stroke="none" target-height="75.600006" target-width="117.69999" target-x="101.4" target-y="443.4"></path><path d="M 118.70 513.90 L 61.70 513.90 C 60.30 513.90 59.10 515.00 59.10 516.50 L 59.10 516.50 L 59.10 516.50 C 59.10 517.90 60.30 519.10 61.70 519.10 L 118.80 519.10 C 120.20 519.10 121.40 517.90 121.40 516.50 L 121.40 516.50 L 121.40 516.50 C 121.30 515.00 120.20 513.90 118.70 513.90 Z" fill="#203c79" fill-rule="nonzero" node-id="294" stroke="none" target-height="5.199951" target-width="62.300007" target-x="59.099995" target-y="513.9"></path><path d="M 169.20 484.40 C 169.20 489.37 165.17 493.40 160.20 493.40 C 155.23 493.40 151.20 489.37 151.20 484.40 C 151.20 479.43 155.23 475.40 160.20 475.40 C 165.17 475.40 169.20 479.43 169.20 484.40 Z" fill="#ffffff" fill-rule="nonzero" node-id="296" stroke="none" target-height="18" target-width="18" target-x="151.2" target-y="475.4"></path><g node-id="449"><path d="M 913.90 578.80 L 913.90 559.20 C 913.80 555.90 916.30 553.20 919.50 553.10 C 922.80 553.00 925.50 555.50 925.60 558.70 C 925.60 558.90 925.60 559.00 925.60 559.20 L 925.60 578.80 C 925.50 582.10 922.70 584.60 919.50 584.40 C 916.50 584.30 914.00 581.90 913.90 578.80 Z" fill="#ffb830" fill-rule="evenodd" group-id="17" node-id="299" stroke="none" target-height="31.599976" target-width="11.799988" target-x="913.8" target-y="553"></path></g><g node-id="450"><path d="M 938.00 582.70 L 957.80 558.30 C 959.80 555.80 963.60 555.40 966.10 557.40 C 968.60 559.40 969.00 563.20 967.00 565.70 L 947.30 590.10 C 945.20 592.60 941.50 592.90 939.00 590.80 C 936.40 588.80 936.10 585.20 938.00 582.70 Z" fill="#ffb830" fill-rule="evenodd" group-id="18" node-id="303" stroke="none" target-height="37.5" target-width="32.900024" target-x="936.1" target-y="555.4"></path></g><g node-id="451"><path d="M 956.50 598.70 L 975.00 592.00 C 978.20 591.20 981.30 593.20 982.10 596.40 C 982.70 599.10 981.50 601.80 979.00 603.00 L 960.50 609.70 C 957.40 610.70 954.10 609.00 953.10 605.90 C 952.20 603.00 953.70 599.80 956.50 598.70 L 956.50 598.70 Z" fill="#ffb830" fill-rule="evenodd" group-id="19" node-id="307" stroke="none" target-height="19.5" target-width="30.5" target-x="952.2" target-y="591.2"></path></g><g node-id="452"><path d="M 268.70 256.20 L 150.00 256.20 L 150.00 157.30 L 298.40 157.30 L 298.40 277.60 L 268.70 256.20 Z" fill="#3aa283" fill-rule="evenodd" group-id="20" node-id="311" stroke="none" target-height="120.3" target-width="148.4" target-x="150" target-y="157.3"></path></g><g node-id="453"><path d="M 137.60 232.80 L 110.40 256.20 L 110.40 117.40 L 275.20 117.40 L 275.20 232.80 L 137.60 232.80 Z" fill="#47daae" fill-rule="evenodd" group-id="21" node-id="315" stroke="none" target-height="138.80002" target-width="164.80002" target-x="110.4" target-y="117.4"></path></g><g node-id="454"><path d="M 169.80 175.40 C 169.80 169.90 165.40 165.50 159.90 165.50 C 154.40 165.50 150.00 169.90 150.00 175.40 C 150.00 180.90 154.40 185.30 159.90 185.30 L 159.90 185.30 C 165.40 185.30 169.80 180.90 169.80 175.40 L 169.80 175.40 Z M 204.40 175.40 C 204.40 169.90 200.00 165.50 194.50 165.50 C 189.00 165.50 184.60 169.90 184.60 175.40 C 184.60 180.90 189.00 185.30 194.50 185.30 C 200.00 185.30 204.40 180.90 204.40 175.40 L 204.40 175.40 Z M 239.00 175.40 C 239.00 169.90 234.60 165.50 229.10 165.50 C 223.60 165.50 219.20 169.90 219.20 175.40 C 219.20 180.90 223.60 185.30 229.10 185.30 L 229.10 185.30 C 234.60 185.30 239.00 180.90 239.00 175.40 L 239.00 175.40 L 239.00 175.40 Z" fill="#3aa283" fill-rule="evenodd" group-id="22" node-id="319" stroke="none" target-height="19.800003" target-width="89" target-x="150" target-y="165.5"></path></g><path d="M 797.90 306.00 C 760.90 292.70 727.50 271.60 697.70 242.70 C 678.80 224.60 663.80 202.80 653.80 178.60 L 813.00 226.10 C 817.40 227.40 819.80 232.00 818.60 236.30 L 797.90 306.00 Z" fill="#dddddd" fill-rule="evenodd" node-id="322" stroke="none" target-height="127.40001" target-width="166" target-x="653.8" target-y="178.59999"></path><g node-id="455"><path d="M 792.80 352.10 L 754.50 308.70 C 750.30 303.90 748.20 297.50 748.70 291.10 L 750.50 269.30 C 758.80 273.30 773.70 283.30 795.30 299.20 C 787.30 311.90 786.90 329.20 794.10 351.20 C 794.20 351.50 794.10 351.90 793.90 352.10 C 793.50 352.50 793.00 352.40 792.80 352.10 Z" fill="#e86e6e" fill-rule="evenodd" group-id="23" node-id="325" stroke="none" target-height="83.20001" target-width="47.099976" target-x="748.2" target-y="269.3"></path></g><g node-id="456"><path d="M 890.20 266.50 C 869.20 256.60 851.90 254.90 838.40 261.20 C 825.30 237.70 817.30 221.70 814.30 213.00 L 836.20 213.90 C 842.60 214.20 848.60 217.10 852.90 221.90 L 891.20 265.20 C 891.50 265.50 891.50 266.00 891.20 266.30 C 890.90 266.60 890.50 266.60 890.20 266.50 Z" fill="#e86e6e" fill-rule="evenodd" group-id="24" node-id="329" stroke="none" target-height="53.600006" target-width="77.20007" target-x="814.2999" target-y="213"></path></g><g node-id="457"><path d="M 845.40 271.10 L 804.20 307.50 L 800.20 305.00 L 843.40 266.90 L 845.40 271.10 Z" fill="#9c9c9c" fill-rule="evenodd" group-id="25" node-id="333" stroke="none" target-height="40.600006" target-width="45.200012" target-x="800.2001" target-y="266.9"></path></g><path d="M 794.80 299.20 C 773.30 283.40 758.40 273.60 750.20 269.60 L 749.10 282.60 C 762.10 292.30 776.20 300.50 790.90 307.30 C 791.90 304.40 793.20 301.70 794.80 299.20 Z" fill="#e86e6e" fill-rule="evenodd" node-id="336" stroke="none" target-height="37.69998" target-width="45.700012" target-x="749.1" target-y="269.6"></path><path d="M 814.60 212.70 C 817.50 221.30 825.50 237.30 838.40 260.60 C 841.00 259.40 843.80 258.40 846.60 257.80 C 841.80 242.30 835.40 227.30 827.40 213.20 L 814.60 212.70 Z" fill="#e86e6e" fill-rule="evenodd" node-id="338" stroke="none" target-height="47.90001" target-width="32" target-x="814.6" target-y="212.7"></path><path d="M 840.40 266.80 L 794.50 307.30 C 752.80 288.00 719.00 258.30 693.10 218.40 C 672.80 187.10 664.10 152.80 667.00 115.50 C 703.60 118.10 736.30 131.30 764.90 155.00 C 801.50 185.60 826.70 222.80 840.40 266.80 Z" fill="#fafafa" fill-rule="nonzero" node-id="340" stroke="none" target-height="191.79999" target-width="176.30005" target-x="664.1" target-y="115.5"></path><g node-id="458"><path d="M 799.80 307.30 C 794.90 305.10 790.10 302.60 785.50 300.10 L 840.50 251.60 C 842.40 256.60 844.10 261.70 845.70 266.90 L 799.80 307.30 Z" fill="#d3d3d3" fill-rule="evenodd" group-id="26" node-id="343" stroke="none" target-height="55.699966" target-width="60.19995" target-x="785.5" target-y="251.60002"></path></g><g node-id="459"><path d="M 834.00 323.50 C 840.30 328.10 840.60 333.50 838.90 338.70 C 835.90 331.60 831.40 332.80 820.70 326.40 C 810.00 320.00 804.10 311.20 807.40 304.60 L 842.30 273.80 C 858.60 271.60 871.20 296.50 867.40 309.80 C 865.90 304.40 861.90 298.90 854.60 292.90 C 863.40 301.70 871.50 324.70 856.30 346.30 C 849.20 327.60 840.50 324.10 834.00 323.50 Z" fill="#ffb830" fill-rule="evenodd" group-id="27" node-id="347" stroke="none" target-height="74.70001" target-width="67.39996" target-x="804.10004" target-y="271.6"></path></g><g node-id="460"><path d="M 853.50 309.50 C 841.00 316.20 829.30 310.30 825.20 305.00 C 827.90 309.40 830.50 311.80 833.40 313.00 C 826.10 314.20 813.60 305.80 815.90 297.20 L 834.60 280.70 C 838.30 279.50 842.60 283.20 845.30 289.30 C 848.00 295.40 847.00 297.70 850.60 299.80 C 847.80 300.30 844.80 299.80 842.80 296.20 C 842.70 299.60 844.00 304.50 853.50 309.50 Z" fill="#ffdd30" fill-rule="evenodd" group-id="28" node-id="351" stroke="none" target-height="36.700012" target-width="39.900024" target-x="813.6" target-y="279.5"></path></g><g node-id="461"><path d="M 671.70 116.00 C 689.00 117.10 706.00 120.90 722.10 127.20 L 675.60 168.20 C 671.60 151.20 670.20 133.50 671.70 116.00 Z" fill="#e86e6e" fill-rule="evenodd" group-id="29" node-id="355" stroke="none" target-height="52.199997" target-width="51.899963" target-x="670.2" target-y="116"></path></g><path d="M 718.20 168.50 C 704.70 180.60 703.70 201.40 715.80 214.90 C 727.90 228.40 748.70 229.40 762.20 217.30 C 775.60 205.20 776.70 184.70 764.80 171.20 C 752.70 157.50 731.80 156.40 718.20 168.50 Z" fill="#dddddd" fill-rule="nonzero" node-id="358" stroke="none" target-height="73.000015" target-width="73" target-x="703.7" target-y="156.4"></path><g node-id="462"><path d="M 722.20 173.00 C 711.20 183.00 710.40 200.00 720.40 210.90 C 730.40 221.90 747.40 222.70 758.30 212.70 C 769.20 202.80 770.10 186.10 760.40 175.10 C 750.40 164.00 733.30 163.00 722.20 173.00 Z" fill="#588cbe" fill-rule="evenodd" group-id="30" node-id="361" stroke="none" target-height="59.699997" target-width="59.69989" target-x="710.4" target-y="163"></path></g><g node-id="463"><path d="M 732.50 175.80 C 730.90 177.10 730.80 179.50 732.10 181.10 C 733.40 182.70 735.80 182.80 737.40 181.50 C 739.00 180.20 739.10 177.80 737.80 176.20 L 737.80 176.20 C 736.40 174.60 734.10 174.40 732.50 175.80 Z" fill="#ffffff" fill-rule="evenodd" group-id="31" node-id="365" stroke="none" target-height="8.399994" target-width="8.299927" target-x="730.8" target-y="174.4"></path></g><g node-id="464"><path d="M 744.60 175.00 C 743.40 176.10 743.30 177.90 744.40 179.20 C 745.40 180.50 747.30 180.70 748.50 179.60 C 749.80 178.60 750.00 176.70 748.90 175.50 C 748.80 175.40 748.80 175.40 748.70 175.30 C 747.70 174.00 745.90 173.90 744.60 175.00 Z" fill="#ffffff" fill-rule="evenodd" group-id="32" node-id="369" stroke="none" target-height="6.800003" target-width="6.700012" target-x="743.3" target-y="173.9"></path></g><g node-id="465"><path d="M 781.80 195.90 C 780.90 196.70 780.80 198.10 781.60 199.00 C 782.40 199.90 783.80 200.00 784.70 199.20 C 785.60 198.40 785.70 197.00 784.90 196.10 L 784.90 196.10 C 784.10 195.20 782.70 195.10 781.80 195.90 L 781.80 195.90 Z" fill="#000000" fill-opacity="0.1" fill-rule="evenodd" group-id="33" node-id="373" stroke="none" target-height="4.900009" target-width="4.9000854" target-x="780.8" target-y="195.09999"></path></g><g node-id="466"><path d="M 782.00 250.80 C 779.40 248.20 779.50 244.00 782.10 241.50 L 782.10 241.50 C 782.20 241.40 782.30 241.30 782.30 241.20 C 785.10 238.80 789.30 239.00 791.70 241.80 C 791.80 241.90 791.80 242.00 791.90 242.00 L 843.80 307.10 C 844.60 308.10 844.50 309.60 843.50 310.50 C 842.50 311.40 841.00 311.30 840.10 310.40 L 782.00 250.80 Z" fill="#e86e6e" fill-rule="evenodd" group-id="34" node-id="377" stroke="none" target-height="72.600006" target-width="65.20001" target-x="779.39996" target-y="238.79999"></path></g><g node-id="467"><path d="M 866.80 868.00 C 849.10 868.00 834.70 875.30 834.70 884.30 C 834.70 893.30 849.10 900.60 866.80 900.60 C 884.50 900.60 898.80 893.30 898.80 884.30 C 898.80 875.30 884.50 868.00 866.80 868.00 Z" fill="#636363" fill-rule="evenodd" group-id="35" node-id="381" stroke="none" target-height="32.599976" target-width="64.10004" target-x="834.7" target-y="868"></path></g><g node-id="468"><path d="M 942.00 749.60 C 926.60 777.20 918.70 803.60 918.20 828.80 L 815.50 828.80 C 814.60 804.00 806.00 776.70 789.70 747.00 C 777.30 730.00 770.60 709.50 770.60 688.40 C 770.60 634.30 813.70 590.50 866.80 590.50 C 919.90 590.50 963.00 634.30 963.00 688.40 C 963.00 710.70 955.70 732.20 942.00 749.60 Z" fill="#ffdd30" fill-rule="evenodd" group-id="36" node-id="385" stroke="none" target-height="238.29999" target-width="192.40002" target-x="770.6" target-y="590.5"></path></g><g node-id="469"><path d="M 857.20 809.30 L 857.20 747.10 C 857.20 741.80 861.50 737.50 866.80 737.50 C 872.10 737.50 876.40 741.80 876.40 747.10 L 876.40 747.10 L 876.40 809.30 L 857.20 809.30 Z" fill="#ffb830" fill-rule="evenodd" group-id="37" node-id="389" stroke="none" target-height="71.79993" target-width="19.199951" target-x="857.2" target-y="737.50006"></path></g><g node-id="470"><path d="M 813.90 812.50 C 813.20 808.20 812.30 803.90 811.20 799.40 L 921.90 799.40 C 920.90 803.80 920.10 808.10 919.40 812.50 L 813.90 812.50 Z" fill="#000000" fill-opacity="0.1" fill-rule="evenodd" group-id="38" node-id="393" stroke="none" target-height="13.099976" target-width="110.69995" target-x="811.2" target-y="799.4"></path></g><g node-id="471"><g clip-path="url(#SVGID_00000109737833472743536510000006013415215444024248_)" group-id="39" node-id="404"><path d="M 809.10 809.30 L 924.50 809.30 L 924.50 887.60 L 809.10 887.60 Z" fill="#e6e6e6" fill-rule="nonzero" group-id="39,52,53,54,55" node-id="406" stroke="none" target-height="78.29999" target-width="115.39996" target-x="809.1" target-y="809.3"></path></g></g><g node-id="472"><path d="M 825.20 835.40 C 821.60 835.40 818.70 832.50 818.70 828.90 C 818.70 825.30 821.60 822.40 825.20 822.40 L 908.40 822.40 C 912.00 822.40 914.90 825.30 914.90 828.90 C 914.90 832.50 912.00 835.40 908.40 835.40 L 825.20 835.40 Z" fill="#bfbfbf" fill-rule="evenodd" group-id="40" node-id="414" stroke="none" target-height="13" target-width="96.20001" target-x="818.7" target-y="822.4"></path></g><g node-id="473"><path d="M 818.70 848.40 C 818.70 850.10 819.40 851.80 820.60 853.00 C 821.80 854.20 823.50 854.90 825.20 854.90 L 908.40 854.90 C 910.10 854.90 911.80 854.20 913.00 852.90 C 914.20 851.70 914.90 850.00 914.90 848.30 L 914.90 848.30 C 914.90 844.70 912.00 841.80 908.40 841.80 L 825.20 841.80 C 821.60 841.90 818.70 844.80 818.70 848.40 Z" fill="#bfbfbf" fill-rule="evenodd" group-id="41" node-id="418" stroke="none" target-height="13.100037" target-width="96.20001" target-x="818.7" target-y="841.8"></path></g><g node-id="474"><path d="M 818.70 868.00 C 818.70 869.70 819.40 871.40 820.60 872.60 C 821.80 873.80 823.50 874.50 825.20 874.50 L 908.40 874.50 C 910.10 874.50 911.80 873.80 913.00 872.50 C 914.20 871.30 914.90 869.60 914.90 867.90 L 914.90 867.90 C 914.90 864.30 912.00 861.40 908.40 861.40 L 825.20 861.40 C 821.60 861.50 818.70 864.40 818.70 868.00 Z" fill="#bfbfbf" fill-rule="evenodd" group-id="42" node-id="422" stroke="none" target-height="13.099976" target-width="96.20001" target-x="818.7" target-y="861.4"></path></g><g node-id="475"><path d="M 886.70 700.70 L 900.70 680.70 C 902.70 677.80 906.70 677.10 909.60 679.00 L 909.70 679.10 C 912.60 681.20 913.20 685.20 911.20 688.20 L 891.90 716.00 C 889.90 718.90 886.00 719.60 883.10 717.60 C 882.40 717.10 881.80 716.50 881.40 715.90 L 867.80 695.50 L 851.70 716.20 C 849.60 719.00 845.60 719.50 842.80 717.40 C 842.20 716.90 841.60 716.30 841.20 715.70 L 824.20 688.00 C 822.30 685.00 823.20 681.00 826.20 679.00 C 829.20 677.10 833.10 678.00 835.00 681.00 C 835.00 681.00 835.00 681.10 835.10 681.10 L 847.30 701.00 L 863.10 680.60 C 865.20 677.80 869.20 677.30 872.00 679.40 C 872.60 679.80 873.00 680.30 873.40 680.90 L 886.70 700.70 Z" fill="#ffb830" fill-rule="evenodd" group-id="43" node-id="426" stroke="none" target-height="42.49994" target-width="90.900024" target-x="822.3" target-y="677.1"></path></g><path d="M 939.20 688.80 C 938.90 683.20 938.00 677.60 936.50 672.20 L 942.90 670.40 C 944.50 676.30 945.50 682.30 945.80 688.40 L 939.20 688.80 Z" fill="#ffffff" fill-rule="nonzero" node-id="429" stroke="none" target-height="18.399963" target-width="9.299988" target-x="936.5" target-y="670.4"></path><path d="M 927.90 650.70 C 921.20 638.50 910.70 629.00 896.60 622.30 L 899.40 616.30 C 914.80 623.50 926.40 634.00 933.70 647.50 L 927.90 650.70 Z" fill="#ffffff" fill-rule="nonzero" node-id="431" stroke="none" target-height="34.400024" target-width="37.100037" target-x="896.6" target-y="616.3"></path></svg>